<svg class="rich-terminal" viewBox="0 0 1360 782.0" xmlns="http://www.w3.org/2000/svg">
    <!-- Generated with Rich https://www.textualize.io -->
    <style>

    @font-face {
        font-family: "Fira Code";
        src: local("FiraCode-Regular"),
                url("https://cdnjs.cloudflare.com/ajax/libs/firacode/6.2.0/woff2/FiraCode-Regular.woff2") format("woff2"),
                url("https://cdnjs.cloudflare.com/ajax/libs/firacode/6.2.0/woff/FiraCode-Regular.woff") format("woff");
        font-style: normal;
        font-weight: 400;
    }
    @font-face {
        font-family: "Fira Code";
        src: local("FiraCode-Bold"),
                url("https://cdnjs.cloudflare.com/ajax/libs/firacode/6.2.0/woff2/FiraCode-Bold.woff2") format("woff2"),
                url("https://cdnjs.cloudflare.com/ajax/libs/firacode/6.2.0/woff/FiraCode-Bold.woff") format("woff");
        font-style: bold;
        font-weight: 700;
    }

    .terminal-1217939651-matrix {
        font-family: Fira Code, monospace;
        font-size: 20px;
        line-height: 24.4px;
        font-variant-east-asian: full-width;
    }

    .terminal-1217939651-title {
        font-size: 18px;
        font-weight: bold;
        font-family: arial;
    }

    .terminal-1217939651-r1 { fill: #c5c8c6 }
.terminal-1217939651-r2 { fill: #ffffff;font-weight: bold }
.terminal-1217939651-r3 { fill: #ccc4d9;font-weight: bold }
.terminal-1217939651-r4 { fill: #5b21b6 }
.terminal-1217939651-r5 { fill: #6b7280;font-style: italic; }
.terminal-1217939651-r6 { fill: #f59e0b;font-weight: bold }
.terminal-1217939651-r7 { fill: #93c5fd;font-weight: bold }
.terminal-1217939651-r8 { fill: #6b7280 }
.terminal-1217939651-r9 { fill: #e1e1e3 }
.terminal-1217939651-r10 { fill: #ffffff }
.terminal-1217939651-r11 { fill: #ffa62b;font-weight: bold }
.terminal-1217939651-r12 { fill: #e0e0e0 }
.terminal-1217939651-r13 { fill: #545463 }
    </style>

    <defs>
    <clipPath id="terminal-1217939651-clip-terminal">
      <rect x="0" y="0" width="1341.0" height="731.0" />
    </clipPath>
    <clipPath id="terminal-1217939651-line-0">
    <rect x="0" y="1.5" width="1342" height="24.65"/>
            </clipPath>
<clipPath id="terminal-1217939651-line-1">
    <rect x="0" y="25.9" width="1342" height="24.65"/>
            </clipPath>
<clipPath id="terminal-1217939651-line-2">
    <rect x="0" y="50.3" width="1342" height="24.65"/>
            </clipPath>
<clipPath id="terminal-1217939651-line-3">
    <rect x="0" y="74.7" width="1342" height="24.65"/>
            </clipPath>
<clipPath id="terminal-1217939651-line-4">
    <rect x="0" y="99.1" width="1342" height="24.65"/>
            </clipPath>
<clipPath id="terminal-1217939651-line-5">
    <rect x="0" y="123.5" width="1342" height="24.65"/>
            </clipPath>
<clipPath id="terminal-1217939651-line-6">
    <rect x="0" y="147.9" width="1342" height="24.65"/>
            </clipPath>
<clipPath id="terminal-1217939651-line-7">
    <rect x="0" y="172.3" width="1342" height="24.65"/>
            </clipPath>
<clipPath id="terminal-1217939651-line-8">
    <rect x="0" y="196.7" width="1342" height="24.65"/>
            </clipPath>
<clipPath id="terminal-1217939651-line-9">
    <rect x="0" y="221.1" width="1342" height="24.65"/>
            </clipPath>
<clipPath id="terminal-1217939651-line-10">
    <rect x="0" y="245.5" width="1342" height="24.65"/>
            </clipPath>
<clipPath id="terminal-1217939651-line-11">
    <rect x="0" y="269.9" width="1342" height="24.65"/>
            </clipPath>
<clipPath id="terminal-1217939651-line-12">
    <rect x="0" y="294.3" width="1342" height="24.65"/>
            </clipPath>
<clipPath id="terminal-1217939651-line-13">
    <rect x="0" y="318.7" width="1342" height="24.65"/>
            </clipPath>
<clipPath id="terminal-1217939651-line-14">
    <rect x="0" y="343.1" width="1342" height="24.65"/>
            </clipPath>
<clipPath id="terminal-1217939651-line-15">
    <rect x="0" y="367.5" width="1342" height="24.65"/>
            </clipPath>
<clipPath id="terminal-1217939651-line-16">
    <rect x="0" y="391.9" width="1342" height="24.65"/>
            </clipPath>
<clipPath id="terminal-1217939651-line-17">
    <rect x="0" y="416.3" width="1342" height="24.65"/>
            </clipPath>
<clipPath id="terminal-1217939651-line-18">
    <rect x="0" y="440.7" width="1342" height="24.65"/>
            </clipPath>
<clipPath id="terminal-1217939651-line-19">
    <rect x="0" y="465.1" width="1342" height="24.65"/>
            </clipPath>
<clipPath id="terminal-1217939651-line-20">
    <rect x="0" y="489.5" width="1342" height="24.65"/>
            </clipPath>
<clipPath id="terminal-1217939651-line-21">
    <rect x="0" y="513.9" width="1342" height="24.65"/>
            </clipPath>
<clipPath id="terminal-1217939651-line-22">
    <rect x="0" y="538.3" width="1342" height="24.65"/>
            </clipPath>
<clipPath id="terminal-1217939651-line-23">
    <rect x="0" y="562.7" width="1342" height="24.65"/>
            </clipPath>
<clipPath id="terminal-1217939651-line-24">
    <rect x="0" y="587.1" width="1342" height="24.65"/>
            </clipPath>
<clipPath id="terminal-1217939651-line-25">
    <rect x="0" y="611.5" width="1342" height="24.65"/>
            </clipPath>
<clipPath id="terminal-1217939651-line-26">
    <rect x="0" y="635.9" width="1342" height="24.65"/>
            </clipPath>
<clipPath id="terminal-1217939651-line-27">
    <rect x="0" y="660.3" width="1342" height="24.65"/>
            </clipPath>
<clipPath id="terminal-1217939651-line-28">
    <rect x="0" y="684.7" width="1342" height="24.65"/>
            </clipPath>
    </defs>

    <rect fill="#292929" stroke="rgba(255,255,255,0.35)" stroke-width="1" x="1" y="1" width="1358" height="780" rx="8"/><text class="terminal-1217939651-title" fill="#c5c8c6" text-anchor="middle" x="679" y="27">lazyenv</text>
            <g transform="translate(26,22)">
            <circle cx="0" cy="0" r="7" fill="#ff5f57"/>
            <circle cx="22" cy="0" r="7" fill="#febc2e"/>
            <circle cx="44" cy="0" r="7" fill="#28c840"/>
            </g>
        
    <g transform="translate(9, 41)" clip-path="url(#terminal-1217939651-clip-terminal)">
    <rect fill="#5b21b6" x="0" y="1.5" width="12.2" height="24.65" shape-rendering="crispEdges"/><rect fill="#5b21b6" x="12.2" y="1.5" width="12.2" height="24.65" shape-rendering="crispEdges"/><rect fill="#5b21b6" x="24.4" y="1.5" width="61" height="24.65" shape-rendering="crispEdges"/><rect fill="#5b21b6" x="85.4" y="1.5" width="12.2" height="24.65" shape-rendering="crispEdges"/><rect fill="#5b21b6" x="97.6" y="1.5" width="512.4" height="24.65" shape-rendering="crispEdges"/><rect fill="#5b21b6" x="610" y="1.5" width="85.4" height="24.65" shape-rendering="crispEdges"/><rect fill="#5b21b6" x="695.4" y="1.5" width="524.6" height="24.65" shape-rendering="crispEdges"/><rect fill="#6029b7" x="1220" y="1.5" width="12.2" height="24.65" shape-rendering="crispEdges"/><rect fill="#6029b7" x="1232.2" y="1.5" width="97.6" height="24.65" shape-rendering="crispEdges"/><rect fill="#6029b7" x="1329.8" y="1.5" width="12.2" height="24.65" shape-rendering="crispEdges"/><rect fill="#5b21b6" x="0" y="25.9" width="12.2" height="24.65" shape-rendering="crispEdges"/><rect fill="#5b21b6" x="12.2" y="25.9" width="158.6" height="24.65" shape-rendering="crispEdges"/><rect fill="#5b21b6" x="170.8" y="25.9" width="12.2" height="24.65" shape-rendering="crispEdges"/><rect fill="#313244" x="183" y="25.9" width="170.8" height="24.65" shape-rendering="crispEdges"/><rect fill="#313244" x="353.8" y="25.9" width="12.2" height="24.65" shape-rendering="crispEdges"/><rect fill="#1e1e2e" x="366" y="25.9" width="12.2" height="24.65" shape-rendering="crispEdges"/><rect fill="#1e1e2e" x="378.2" y="25.9" width="756.4" height="24.65" shape-rendering="crispEdges"/><rect fill="#1e1e2e" x="1134.6" y="25.9" width="195.2" height="24.65" shape-rendering="crispEdges"/><rect fill="#1e1e2e" x="1329.8" y="25.9" width="12.2" height="24.65" shape-rendering="crispEdges"/><rect fill="#0178d4" x="0" y="50.3" width="12.2" height="24.65" shape-rendering="crispEdges"/><rect fill="#0178d4" x="12.2" y="50.3" width="73.2" height="24.65" shape-rendering="crispEdges"/><rect fill="#0178d4" x="85.4" y="50.3" width="256.2" height="24.65" shape-rendering="crispEdges"/><rect fill="#0178d4" x="341.6" y="50.3" width="12.2" height="24.65" shape-rendering="crispEdges"/><rect fill="#313244" x="353.8" y="50.3" width="12.2" height="24.65" shape-rendering="crispEdges"/><rect fill="#1e1e2e" x="366" y="50.3" width="12.2" height="24.65" shape-rendering="crispEdges"/><rect fill="#1e1e2e" x="378.2" y="50.3" width="146.4" height="24.65" shape-rendering="crispEdges"/><rect fill="#1e1e2e" x="524.6" y="50.3" width="195.2" height="24.65" shape-rendering="crispEdges"/><rect fill="#1e1e2e" x="719.8" y="50.3" width="36.6" height="24.65" shape-rendering="crispEdges"/><rect fill="#1e1e2e" x="756.4" y="50.3" width="451.4" height="24.65" shape-rendering="crispEdges"/><rect fill="#1e1e2e" x="1207.8" y="50.3" width="122" height="24.65" shape-rendering="crispEdges"/><rect fill="#1e1e2e" x="1329.8" y="50.3" width="12.2" height="24.65" shape-rendering="crispEdges"/><rect fill="#393a4b" x="0" y="74.7" width="12.2" height="24.65" shape-rendering="crispEdges"/><rect fill="#393a4b" x="12.2" y="74.7" width="170.8" height="24.65" shape-rendering="crispEdges"/><rect fill="#393a4b" x="183" y="74.7" width="158.6" height="24.65" shape-rendering="crispEdges"/><rect fill="#393a4b" x="341.6" y="74.7" width="12.2" height="24.65" shape-rendering="crispEdges"/><rect fill="#313244" x="353.8" y="74.7" width="12.2" height="24.65" shape-rendering="crispEdges"/><rect fill="#1e1e2e" x="366" y="74.7" width="12.2" height="24.65" shape-rendering="crispEdges"/><rect fill="#1e1e2e" x="378.2" y="74.7" width="85.4" height="24.65" shape-rendering="crispEdges"/><rect fill="#1e1e2e" x="463.6" y="74.7" width="256.2" height="24.65" shape-rendering="crispEdges"/><rect fill="#1e1e2e" x="719.8" y="74.7" width="36.6" height="24.65" shape-rendering="crispEdges"/><rect fill="#1e1e2e" x="756.4" y="74.7" width="109.8" height="24.65" shape-rendering="crispEdges"/><rect fill="#1e1e2e" x="866.2" y="74.7" width="463.6" height="24.65" shape-rendering="crispEdges"/><rect fill="#1e1e2e" x="1329.8" y="74.7" width="12.2" height="24.65" shape-rendering="crispEdges"/><rect fill="#393a4b" x="0" y="99.1" width="353.8" height="24.65" shape-rendering="crispEdges"/><rect fill="#313244" x="353.8" y="99.1" width="12.2" height="24.65" shape-rendering="crispEdges"/><rect fill="#1e1e2e" x="366" y="99.1" width="12.2" height="24.65" shape-rendering="crispEdges"/><rect fill="#1e1e2e" x="378.2" y="99.1" width="85.4" height="24.65" shape-rendering="crispEdges"/><rect fill="#1e1e2e" x="463.6" y="99.1" width="256.2" height="24.65" shape-rendering="crispEdges"/><rect fill="#1e1e2e" x="719.8" y="99.1" width="36.6" height="24.65" shape-rendering="crispEdges"/><rect fill="#1e1e2e" x="756.4" y="99.1" width="97.6" height="24.65" shape-rendering="crispEdges"/><rect fill="#1e1e2e" x="854" y="99.1" width="475.8" height="24.65" shape-rendering="crispEdges"/><rect fill="#1e1e2e" x="1329.8" y="99.1" width="12.2" height="24.65" shape-rendering="crispEdges"/><rect fill="#393a4b" x="0" y="123.5" width="353.8" height="24.65" shape-rendering="crispEdges"/><rect fill="#313244" x="353.8" y="123.5" width="12.2" height="24.65" shape-rendering="crispEdges"/><rect fill="#1e1e2e" x="366" y="123.5" width="12.2" height="24.65" shape-rendering="crispEdges"/><rect fill="#1e1e2e" x="378.2" y="123.5" width="134.2" height="24.65" shape-rendering="crispEdges"/><rect fill="#1e1e2e" x="512.4" y="123.5" width="207.4" height="24.65" shape-rendering="crispEdges"/><rect fill="#1e1e2e" x="719.8" y="123.5" width="36.6" height="24.65" shape-rendering="crispEdges"/><rect fill="#1e1e2e" x="756.4" y="123.5" width="195.2" height="24.65" shape-rendering="crispEdges"/><rect fill="#1e1e2e" x="951.6" y="123.5" width="378.2" height="24.65" shape-rendering="crispEdges"/><rect fill="#1e1e2e" x="1329.8" y="123.5" width="12.2" height="24.65" shape-rendering="crispEdges"/><rect fill="#393a4b" x="0" y="147.9" width="353.8" height="24.65" shape-rendering="crispEdges"/><rect fill="#313244" x="353.8" y="147.9" width="12.2" height="24.65" shape-rendering="crispEdges"/><rect fill="#1e1e2e" x="366" y="147.9" width="0" height="24.65" shape-rendering="crispEdges"/><rect fill="#1e1e2e" x="366" y="147.9" width="976" height="24.65" shape-rendering="crispEdges"/><rect fill="#393a4b" x="0" y="172.3" width="353.8" height="24.65" shape-rendering="crispEdges"/><rect fill="#313244" x="353.8" y="172.3" width="12.2" height="24.65" shape-rendering="crispEdges"/><rect fill="#1e1e2e" x="366" y="172.3" width="12.2" height="24.65" shape-rendering="crispEdges"/><rect fill="#1e1e2e" x="378.2" y="172.3" width="768.6" height="24.65" shape-rendering="crispEdges"/><rect fill="#1e1e2e" x="1146.8" y="172.3" width="183" height="24.65" shape-rendering="crispEdges"/><rect fill="#1e1e2e" x="1329.8" y="172.3" width="12.2" height="24.65" shape-rendering="crispEdges"/><rect fill="#393a4b" x="0" y="196.7" width="353.8" height="24.65" shape-rendering="crispEdges"/><rect fill="#313244" x="353.8" y="196.7" width="12.2" height="24.65" shape-rendering="crispEdges"/><rect fill="#1e1e2e" x="366" y="196.7" width="12.2" height="24.65" shape-rendering="crispEdges"/><rect fill="#1e1e2e" x="378.2" y="196.7" width="109.8" height="24.65" shape-rendering="crispEdges"/><rect fill="#1e1e2e" x="488" y="196.7" width="231.8" height="24.65" shape-rendering="crispEdges"/><rect fill="#1e1e2e" x="719.8" y="196.7" width="36.6" height="24.65" shape-rendering="crispEdges"/><rect fill="#1e1e2e" x="756.4" y="196.7" width="268.4" height="24.65" shape-rendering="crispEdges"/><rect fill="#1e1e2e" x="1024.8" y="196.7" width="305" height="24.65" shape-rendering="crispEdges"/><rect fill="#1e1e2e" x="1329.8" y="196.7" width="12.2" height="24.65" shape-rendering="crispEdges"/><rect fill="#393a4b" x="0" y="221.1" width="353.8" height="24.65" shape-rendering="crispEdges"/><rect fill="#313244" x="353.8" y="221.1" width="12.2" height="24.65" shape-rendering="crispEdges"/><rect fill="#1e1e2e" x="366" y="221.1" width="0" height="24.65" shape-rendering="crispEdges"/><rect fill="#1e1e2e" x="366" y="221.1" width="976" height="24.65" shape-rendering="crispEdges"/><rect fill="#393a4b" x="0" y="245.5" width="353.8" height="24.65" shape-rendering="crispEdges"/><rect fill="#313244" x="353.8" y="245.5" width="12.2" height="24.65" shape-rendering="crispEdges"/><rect fill="#1e1e2e" x="366" y="245.5" width="12.2" height="24.65" shape-rendering="crispEdges"/><rect fill="#1e1e2e" x="378.2" y="245.5" width="780.8" height="24.65" shape-rendering="crispEdges"/><rect fill="#1e1e2e" x="1159" y="245.5" width="170.8" height="24.65" shape-rendering="crispEdges"/><rect fill="#1e1e2e" x="1329.8" y="245.5" width="12.2" height="24.65" shape-rendering="crispEdges"/><rect fill="#393a4b" x="0" y="269.9" width="353.8" height="24.65" shape-rendering="crispEdges"/><rect fill="#313244" x="353.8" y="269.9" width="12.2" height="24.65" shape-rendering="crispEdges"/><rect fill="#1e1e2e" x="366" y="269.9" width="12.2" height="24.65" shape-rendering="crispEdges"/><rect fill="#1e1e2e" x="378.2" y="269.9" width="170.8" height="24.65" shape-rendering="crispEdges"/><rect fill="#1e1e2e" x="549" y="269.9" width="170.8" height="24.65" shape-rendering="crispEdges"/><rect fill="#1e1e2e" x="719.8" y="269.9" width="36.6" height="24.65" shape-rendering="crispEdges"/><rect fill="#1e1e2e" x="756.4" y="269.9" width="195.2" height="24.65" shape-rendering="crispEdges"/><rect fill="#1e1e2e" x="951.6" y="269.9" width="378.2" height="24.65" shape-rendering="crispEdges"/><rect fill="#1e1e2e" x="1329.8" y="269.9" width="12.2" height="24.65" shape-rendering="crispEdges"/><rect fill="#393a4b" x="0" y="294.3" width="353.8" height="24.65" shape-rendering="crispEdges"/><rect fill="#313244" x="353.8" y="294.3" width="12.2" height="24.65" shape-rendering="crispEdges"/><rect fill="#1e1e2e" x="366" y="294.3" width="12.2" height="24.65" shape-rendering="crispEdges"/><rect fill="#1e1e2e" x="378.2" y="294.3" width="170.8" height="24.65" shape-rendering="crispEdges"/><rect fill="#1e1e2e" x="549" y="294.3" width="170.8" height="24.65" shape-rendering="crispEdges"/><rect fill="#1e1e2e" x="719.8" y="294.3" width="36.6" height="24.65" shape-rendering="crispEdges"/><rect fill="#1e1e2e" x="756.4" y="294.3" width="24.4" height="24.65" shape-rendering="crispEdges"/><rect fill="#1e1e2e" x="780.8" y="294.3" width="549" height="24.65" shape-rendering="crispEdges"/><rect fill="#1e1e2e" x="1329.8" y="294.3" width="12.2" height="24.65" shape-rendering="crispEdges"/><rect fill="#393a4b" x="0" y="318.7" width="353.8" height="24.65" shape-rendering="crispEdges"/><rect fill="#313244" x="353.8" y="318.7" width="12.2" height="24.65" shape-rendering="crispEdges"/><rect fill="#1e1e2e" x="366" y="318.7" width="0" height="24.65" shape-rendering="crispEdges"/><rect fill="#1e1e2e" x="366" y="318.7" width="976" height="24.65" shape-rendering="crispEdges"/><rect fill="#393a4b" x="0" y="343.1" width="353.8" height="24.65" shape-rendering="crispEdges"/><rect fill="#313244" x="353.8" y="343.1" width="12.2" height="24.65" shape-rendering="crispEdges"/><rect fill="#1e1e2e" x="366" y="343.1" width="12.2" height="24.65" shape-rendering="crispEdges"/><rect fill="#1e1e2e" x="378.2" y="343.1" width="768.6" height="24.65" shape-rendering="crispEdges"/><rect fill="#1e1e2e" x="1146.8" y="343.1" width="183" height="24.65" shape-rendering="crispEdges"/><rect fill="#1e1e2e" x="1329.8" y="343.1" width="12.2" height="24.65" shape-rendering="crispEdges"/><rect fill="#393a4b" x="0" y="367.5" width="353.8" height="24.65" shape-rendering="crispEdges"/><rect fill="#313244" x="353.8" y="367.5" width="12.2" height="24.65" shape-rendering="crispEdges"/><rect fill="#1e1e2e" x="366" y="367.5" width="12.2" height="24.65" shape-rendering="crispEdges"/><rect fill="#1e1e2e" x="378.2" y="367.5" width="85.4" height="24.65" shape-rendering="crispEdges"/><rect fill="#1e1e2e" x="463.6" y="367.5" width="256.2" height="24.65" shape-rendering="crispEdges"/><rect fill="#1e1e2e" x="719.8" y="367.5" width="36.6" height="24.65" shape-rendering="crispEdges"/><rect fill="#1e1e2e" x="756.4" y="367.5" width="134.2" height="24.65" shape-rendering="crispEdges"/><rect fill="#1e1e2e" x="890.6" y="367.5" width="439.2" height="24.65" shape-rendering="crispEdges"/><rect fill="#1e1e2e" x="1329.8" y="367.5" width="12.2" height="24.65" shape-rendering="crispEdges"/><rect fill="#393a4b" x="0" y="391.9" width="353.8" height="24.65" shape-rendering="crispEdges"/><rect fill="#313244" x="353.8" y="391.9" width="12.2" height="24.65" shape-rendering="crispEdges"/><rect fill="#1e1e2e" x="366" y="391.9" width="12.2" height="24.65" shape-rendering="crispEdges"/><rect fill="#1e1e2e" x="378.2" y="391.9" width="97.6" height="24.65" shape-rendering="crispEdges"/><rect fill="#1e1e2e" x="475.8" y="391.9" width="244" height="24.65" shape-rendering="crispEdges"/><rect fill="#1e1e2e" x="719.8" y="391.9" width="36.6" height="24.65" shape-rendering="crispEdges"/><rect fill="#1e1e2e" x="756.4" y="391.9" width="48.8" height="24.65" shape-rendering="crispEdges"/><rect fill="#1e1e2e" x="805.2" y="391.9" width="524.6" height="24.65" shape-rendering="crispEdges"/><rect fill="#1e1e2e" x="1329.8" y="391.9" width="12.2" height="24.65" shape-rendering="crispEdges"/><rect fill="#393a4b" x="0" y="416.3" width="353.8" height="24.65" shape-rendering="crispEdges"/><rect fill="#313244" x="353.8" y="416.3" width="12.2" height="24.65" shape-rendering="crispEdges"/><rect fill="#1e1e2e" x="366" y="416.3" width="12.2" height="24.65" shape-rendering="crispEdges"/><rect fill="#1e1e2e" x="378.2" y="416.3" width="85.4" height="24.65" shape-rendering="crispEdges"/><rect fill="#1e1e2e" x="463.6" y="416.3" width="256.2" height="24.65" shape-rendering="crispEdges"/><rect fill="#1e1e2e" x="719.8" y="416.3" width="36.6" height="24.65" shape-rendering="crispEdges"/><rect fill="#1e1e2e" x="756.4" y="416.3" width="256.2" height="24.65" shape-rendering="crispEdges"/><rect fill="#1e1e2e" x="1012.6" y="416.3" width="317.2" height="24.65" shape-rendering="crispEdges"/><rect fill="#1e1e2e" x="1329.8" y="416.3" width="12.2" height="24.65" shape-rendering="crispEdges"/><rect fill="#393a4b" x="0" y="440.7" width="353.8" height="24.65" shape-rendering="crispEdges"/><rect fill="#313244" x="353.8" y="440.7" width="12.2" height="24.65" shape-rendering="crispEdges"/><rect fill="#1e1e2e" x="366" y="440.7" width="12.2" height="24.65" shape-rendering="crispEdges"/><rect fill="#1e1e2e" x="378.2" y="440.7" width="61" height="24.65" shape-rendering="crispEdges"/><rect fill="#1e1e2e" x="439.2" y="440.7" width="280.6" height="24.65" shape-rendering="crispEdges"/><rect fill="#1e1e2e" x="719.8" y="440.7" width="36.6" height="24.65" shape-rendering="crispEdges"/><rect fill="#1e1e2e" x="756.4" y="440.7" width="48.8" height="24.65" shape-rendering="crispEdges"/><rect fill="#1e1e2e" x="805.2" y="440.7" width="524.6" height="24.65" shape-rendering="crispEdges"/><rect fill="#1e1e2e" x="1329.8" y="440.7" width="12.2" height="24.65" shape-rendering="crispEdges"/><rect fill="#393a4b" x="0" y="465.1" width="353.8" height="24.65" shape-rendering="crispEdges"/><rect fill="#313244" x="353.8" y="465.1" width="12.2" height="24.65" shape-rendering="crispEdges"/><rect fill="#1e1e2e" x="366" y="465.1" width="12.2" height="24.65" shape-rendering="crispEdges"/><rect fill="#1e1e2e" x="378.2" y="465.1" width="109.8" height="24.65" shape-rendering="crispEdges"/><rect fill="#1e1e2e" x="488" y="465.1" width="231.8" height="24.65" shape-rendering="crispEdges"/><rect fill="#1e1e2e" x="719.8" y="465.1" width="36.6" height="24.65" shape-rendering="crispEdges"/><rect fill="#1e1e2e" x="756.4" y="465.1" width="61" height="24.65" shape-rendering="crispEdges"/><rect fill="#1e1e2e" x="817.4" y="465.1" width="512.4" height="24.65" shape-rendering="crispEdges"/><rect fill="#1e1e2e" x="1329.8" y="465.1" width="12.2" height="24.65" shape-rendering="crispEdges"/><rect fill="#393a4b" x="0" y="489.5" width="353.8" height="24.65" shape-rendering="crispEdges"/><rect fill="#313244" x="353.8" y="489.5" width="12.2" height="24.65" shape-rendering="crispEdges"/><rect fill="#1e1e2e" x="366" y="489.5" width="0" height="24.65" shape-rendering="crispEdges"/><rect fill="#1e1e2e" x="366" y="489.5" width="976" height="24.65" shape-rendering="crispEdges"/><rect fill="#393a4b" x="0" y="513.9" width="353.8" height="24.65" shape-rendering="crispEdges"/><rect fill="#313244" x="353.8" y="513.9" width="12.2" height="24.65" shape-rendering="crispEdges"/><rect fill="#1e1e2e" x="366" y="513.9" width="12.2" height="24.65" shape-rendering="crispEdges"/><rect fill="#1e1e2e" x="378.2" y="513.9" width="841.8" height="24.65" shape-rendering="crispEdges"/><rect fill="#1e1e2e" x="1220" y="513.9" width="109.8" height="24.65" shape-rendering="crispEdges"/><rect fill="#1e1e2e" x="1329.8" y="513.9" width="12.2" height="24.65" shape-rendering="crispEdges"/><rect fill="#393a4b" x="0" y="538.3" width="353.8" height="24.65" shape-rendering="crispEdges"/><rect fill="#313244" x="353.8" y="538.3" width="12.2" height="24.65" shape-rendering="crispEdges"/><rect fill="#1e1e2e" x="366" y="538.3" width="12.2" height="24.65" shape-rendering="crispEdges"/><rect fill="#1e1e2e" x="378.2" y="538.3" width="805.2" height="24.65" shape-rendering="crispEdges"/><rect fill="#1e1e2e" x="1183.4" y="538.3" width="146.4" height="24.65" shape-rendering="crispEdges"/><rect fill="#1e1e2e" x="1329.8" y="538.3" width="12.2" height="24.65" shape-rendering="crispEdges"/><rect fill="#393a4b" x="0" y="562.7" width="353.8" height="24.65" shape-rendering="crispEdges"/><rect fill="#313244" x="353.8" y="562.7" width="12.2" height="24.65" shape-rendering="crispEdges"/><rect fill="#1e1e2e" x="366" y="562.7" width="976" height="24.65" shape-rendering="crispEdges"/><rect fill="#393a4b" x="0" y="587.1" width="353.8" height="24.65" shape-rendering="crispEdges"/><rect fill="#313244" x="353.8" y="587.1" width="12.2" height="24.65" shape-rendering="crispEdges"/><rect fill="#1e1e2e" x="366" y="587.1" width="976" height="24.65" shape-rendering="crispEdges"/><rect fill="#393a4b" x="0" y="611.5" width="353.8" height="24.65" shape-rendering="crispEdges"/><rect fill="#313244" x="353.8" y="611.5" width="12.2" height="24.65" shape-rendering="crispEdges"/><rect fill="#1e1e2e" x="366" y="611.5" width="976" height="24.65" shape-rendering="crispEdges"/><rect fill="#393a4b" x="0" y="635.9" width="353.8" height="24.65" shape-rendering="crispEdges"/><rect fill="#313244" x="353.8" y="635.9" width="12.2" height="24.65" shape-rendering="crispEdges"/><rect fill="#1e1e2e" x="366" y="635.9" width="976" height="24.65" shape-rendering="crispEdges"/><rect fill="#393a4b" x="0" y="660.3" width="353.8" height="24.65" shape-rendering="crispEdges"/><rect fill="#313244" x="353.8" y="660.3" width="12.2" height="24.65" shape-rendering="crispEdges"/><rect fill="#1e1e2e" x="366" y="660.3" width="976" height="24.65" shape-rendering="crispEdges"/><rect fill="#5b21b6" x="0" y="684.7" width="12.2" height="24.65" shape-rendering="crispEdges"/><rect fill="#7c3aed" x="12.2" y="684.7" width="12.2" height="24.65" shape-rendering="crispEdges"/><rect fill="#7c3aed" x="24.4" y="684.7" width="85.4" height="24.65" shape-rendering="crispEdges"/><rect fill="#7c3aed" x="109.8" y="684.7" width="12.2" height="24.65" shape-rendering="crispEdges"/><rect fill="#5b21b6" x="122" y="684.7" width="12.2" height="24.65" shape-rendering="crispEdges"/><rect fill="#5b21b6" x="134.2" y="684.7" width="48.8" height="24.65" shape-rendering="crispEdges"/><rect fill="#5b21b6" x="183" y="684.7" width="24.4" height="24.65" shape-rendering="crispEdges"/><rect fill="#5b21b6" x="207.4" y="684.7" width="12.2" height="24.65" shape-rendering="crispEdges"/><rect fill="#5b21b6" x="219.6" y="684.7" width="24.4" height="24.65" shape-rendering="crispEdges"/><rect fill="#5b21b6" x="244" y="684.7" width="85.4" height="24.65" shape-rendering="crispEdges"/><rect fill="#5b21b6" x="329.4" y="684.7" width="24.4" height="24.65" shape-rendering="crispEdges"/><rect fill="#5b21b6" x="353.8" y="684.7" width="12.2" height="24.65" shape-rendering="crispEdges"/><rect fill="#5b21b6" x="366" y="684.7" width="24.4" height="24.65" shape-rendering="crispEdges"/><rect fill="#10b981" x="390.4" y="684.7" width="12.2" height="24.65" shape-rendering="crispEdges"/><rect fill="#10b981" x="402.6" y="684.7" width="85.4" height="24.65" shape-rendering="crispEdges"/><rect fill="#10b981" x="488" y="684.7" width="12.2" height="24.65" shape-rendering="crispEdges"/><rect fill="#5b21b6" x="500.2" y="684.7" width="24.4" height="24.65" shape-rendering="crispEdges"/><rect fill="#374151" x="524.6" y="684.7" width="12.2" height="24.65" shape-rendering="crispEdges"/><rect fill="#374151" x="536.8" y="684.7" width="0" height="24.65" shape-rendering="crispEdges"/><rect fill="#374151" x="536.8" y="684.7" width="12.2" height="24.65" shape-rendering="crispEdges"/><rect fill="#5b21b6" x="549" y="684.7" width="780.8" height="24.65" shape-rendering="crispEdges"/><rect fill="#5b21b6" x="1329.8" y="684.7" width="12.2" height="24.65" shape-rendering="crispEdges"/><rect fill="#313244" x="0" y="709.1" width="36.6" height="24.65" shape-rendering="crispEdges"/><rect fill="#313244" x="36.6" y="709.1" width="61" height="24.65" shape-rendering="crispEdges"/><rect fill="#313244" x="97.6" y="709.1" width="36.6" height="24.65" shape-rendering="crispEdges"/><rect fill="#313244" x="134.2" y="709.1" width="61" height="24.65" shape-rendering="crispEdges"/><rect fill="#313244" x="195.2" y="709.1" width="36.6" height="24.65" shape-rendering="crispEdges"/><rect fill="#313244" x="231.8" y="709.1" width="85.4" height="24.65" shape-rendering="crispEdges"/><rect fill="#313244" x="317.2" y="709.1" width="36.6" height="24.65" shape-rendering="crispEdges"/><rect fill="#313244" x="353.8" y="709.1" width="61" height="24.65" shape-rendering="crispEdges"/><rect fill="#313244" x="414.8" y="709.1" width="36.6" height="24.65" shape-rendering="crispEdges"/><rect fill="#313244" x="451.4" y="709.1" width="158.6" height="24.65" shape-rendering="crispEdges"/><rect fill="#313244" x="610" y="709.1" width="36.6" height="24.65" shape-rendering="crispEdges"/><rect fill="#313244" x="646.6" y="709.1" width="61" height="24.65" shape-rendering="crispEdges"/><rect fill="#313244" x="707.6" y="709.1" width="36.6" height="24.65" shape-rendering="crispEdges"/><rect fill="#313244" x="744.2" y="709.1" width="61" height="24.65" shape-rendering="crispEdges"/><rect fill="#313244" x="805.2" y="709.1" width="36.6" height="24.65" shape-rendering="crispEdges"/><rect fill="#313244" x="841.8" y="709.1" width="85.4" height="24.65" shape-rendering="crispEdges"/><rect fill="#313244" x="927.2" y="709.1" width="268.4" height="24.65" shape-rendering="crispEdges"/><rect fill="#313244" x="1195.6" y="709.1" width="12.2" height="24.65" shape-rendering="crispEdges"/><rect fill="#313244" x="1207.8" y="709.1" width="24.4" height="24.65" shape-rendering="crispEdges"/><rect fill="#313244" x="1232.2" y="709.1" width="97.6" height="24.65" shape-rendering="crispEdges"/><rect fill="#313244" x="1329.8" y="709.1" width="12.2" height="24.65" shape-rendering="crispEdges"/>
    <g class="terminal-1217939651-matrix">
    <text class="terminal-1217939651-r2" x="12.2" y="20" textLength="12.2" clip-path="url(#terminal-1217939651-line-0)">⭘</text><text class="terminal-1217939651-r2" x="610" y="20" textLength="85.4" clip-path="url(#terminal-1217939651-line-0)">lazyenv</text><text class="terminal-1217939651-r3" x="1232.2" y="20" textLength="97.6" clip-path="url(#terminal-1217939651-line-0)">17:09:21</text><text class="terminal-1217939651-r1" x="1342" y="20" textLength="12.2" clip-path="url(#terminal-1217939651-line-0)">
</text><text class="terminal-1217939651-r2" x="12.2" y="44.4" textLength="146.4" clip-path="url(#terminal-1217939651-line-1)">&#160;📁&#160;ENV&#160;FILES</text><text class="terminal-1217939651-r4" x="353.8" y="44.4" textLength="12.2" clip-path="url(#terminal-1217939651-line-1)">│</text><text class="terminal-1217939651-r5" x="378.2" y="44.4" textLength="756.4" clip-path="url(#terminal-1217939651-line-1)">#&#160;──&#160;Database&#160;────────────────────────────────────────────────</text><text class="terminal-1217939651-r1" x="1342" y="44.4" textLength="12.2" clip-path="url(#terminal-1217939651-line-1)">
</text><text class="terminal-1217939651-r6" x="12.2" y="68.8" textLength="73.2" clip-path="url(#terminal-1217939651-line-2)">⚠&#160;.env</text><text class="terminal-1217939651-r4" x="353.8" y="68.8" textLength="12.2" clip-path="url(#terminal-1217939651-line-2)">│</text><text class="terminal-1217939651-r7" x="378.2" y="68.8" textLength="146.4" clip-path="url(#terminal-1217939651-line-2)">DATABASE_URL</text><text class="terminal-1217939651-r8" x="719.8" y="68.8" textLength="36.6" clip-path="url(#terminal-1217939651-line-2)">&#160;=&#160;</text><text class="terminal-1217939651-r9" x="756.4" y="68.8" textLength="451.4" clip-path="url(#terminal-1217939651-line-2)">postgresql://localhost:5432/myapp_dev</text><text class="terminal-1217939651-r1" x="1342" y="68.8" textLength="12.2" clip-path="url(#terminal-1217939651-line-2)">
</text><text class="terminal-1217939651-r8" x="12.2" y="93.2" textLength="170.8" clip-path="url(#terminal-1217939651-line-3)">·&#160;.env.example</text><text class="terminal-1217939651-r4" x="353.8" y="93.2" textLength="12.2" clip-path="url(#terminal-1217939651-line-3)">│</text><text class="terminal-1217939651-r7" x="378.2" y="93.2" textLength="85.4" clip-path="url(#terminal-1217939651-line-3)">DB_NAME</text><text class="terminal-1217939651-r8" x="719.8" y="93.2" textLength="36.6" clip-path="url(#terminal-1217939651-line-3)">&#160;=&#160;</text><text class="terminal-1217939651-r9" x="756.4" y="93.2" textLength="109.8" clip-path="url(#terminal-1217939651-line-3)">myapp_dev</text><text class="terminal-1217939651-r1" x="1342" y="93.2" textLength="12.2" clip-path="url(#terminal-1217939651-line-3)">
</text><text class="terminal-1217939651-r4" x="353.8" y="117.6" textLength="12.2" clip-path="url(#terminal-1217939651-line-4)">│</text><text class="terminal-1217939651-r7" x="378.2" y="117.6" textLength="85.4" clip-path="url(#terminal-1217939651-line-4)">DB_USER</text><text class="terminal-1217939651-r8" x="719.8" y="117.6" textLength="36.6" clip-path="url(#terminal-1217939651-line-4)">&#160;=&#160;</text><text class="terminal-1217939651-r9" x="756.4" y="117.6" textLength="97.6" clip-path="url(#terminal-1217939651-line-4)">postgres</text><text class="terminal-1217939651-r1" x="1342" y="117.6" textLength="12.2" clip-path="url(#terminal-1217939651-line-4)">
</text><text class="terminal-1217939651-r4" x="353.8" y="142" textLength="12.2" clip-path="url(#terminal-1217939651-line-5)">│</text><text class="terminal-1217939651-r7" x="378.2" y="142" textLength="134.2" clip-path="url(#terminal-1217939651-line-5)">DB_PASSWORD</text><text class="terminal-1217939651-r8" x="719.8" y="142" textLength="36.6" clip-path="url(#terminal-1217939651-line-5)">&#160;=&#160;</text><text class="terminal-1217939651-r8" x="756.4" y="142" textLength="195.2" clip-path="url(#terminal-1217939651-line-5)">••••••••••••••••</text><text class="terminal-1217939651-r1" x="1342" y="142" textLength="12.2" clip-path="url(#terminal-1217939651-line-5)">
</text><text class="terminal-1217939651-r4" x="353.8" y="166.4" textLength="12.2" clip-path="url(#terminal-1217939651-line-6)">│</text><text class="terminal-1217939651-r1" x="1342" y="166.4" textLength="12.2" clip-path="url(#terminal-1217939651-line-6)">
</text><text class="terminal-1217939651-r4" x="353.8" y="190.8" textLength="12.2" clip-path="url(#terminal-1217939651-line-7)">│</text><text class="terminal-1217939651-r5" x="378.2" y="190.8" textLength="768.6" clip-path="url(#terminal-1217939651-line-7)">#&#160;──&#160;Cache&#160;────────────────────────────────────────────────────</text><text class="terminal-1217939651-r1" x="1342" y="190.8" textLength="12.2" clip-path="url(#terminal-1217939651-line-7)">
</text><text class="terminal-1217939651-r4" x="353.8" y="215.2" textLength="12.2" clip-path="url(#terminal-1217939651-line-8)">│</text><text class="terminal-1217939651-r7" x="378.2" y="215.2" textLength="109.8" clip-path="url(#terminal-1217939651-line-8)">REDIS_URL</text><text class="terminal-1217939651-r8" x="719.8" y="215.2" textLength="36.6" clip-path="url(#terminal-1217939651-line-8)">&#160;=&#160;</text><text class="terminal-1217939651-r9" x="756.4" y="215.2" textLength="268.4" clip-path="url(#terminal-1217939651-line-8)">redis://localhost:6379</text><text class="terminal-1217939651-r1" x="1342" y="215.2" textLength="12.2" clip-path="url(#terminal-1217939651-line-8)">
</text><text class="terminal-1217939651-r4" x="353.8" y="239.6" textLength="12.2" clip-path="url(#terminal-1217939651-line-9)">│</text><text class="terminal-1217939651-r1" x="1342" y="239.6" textLength="12.2" clip-path="url(#terminal-1217939651-line-9)">
</text><text class="terminal-1217939651-r4" x="353.8" y="264" textLength="12.2" clip-path="url(#terminal-1217939651-line-10)">│</text><text class="terminal-1217939651-r5" x="378.2" y="264" textLength="780.8" clip-path="url(#terminal-1217939651-line-10)">#&#160;──&#160;Authentication&#160;────────────────────────────────────────────</text><text class="terminal-1217939651-r1" x="1342" y="264" textLength="12.2" clip-path="url(#terminal-1217939651-line-10)">
</text><text class="terminal-1217939651-r4" x="353.8" y="288.4" textLength="12.2" clip-path="url(#terminal-1217939651-line-11)">│</text><text class="terminal-1217939651-r7" x="378.2" y="288.4" textLength="170.8" clip-path="url(#terminal-1217939651-line-11)">JWT_SECRET_KEY</text><text class="terminal-1217939651-r8" x="719.8" y="288.4" textLength="36.6" clip-path="url(#terminal-1217939651-line-11)">&#160;=&#160;</text><text class="terminal-1217939651-r8" x="756.4" y="288.4" textLength="195.2" clip-path="url(#terminal-1217939651-line-11)">••••••••••••••••</text><text class="terminal-1217939651-r1" x="1342" y="288.4" textLength="12.2" clip-path="url(#terminal-1217939651-line-11)">
</text><text class="terminal-1217939651-r4" x="353.8" y="312.8" textLength="12.2" clip-path="url(#terminal-1217939651-line-12)">│</text><text class="terminal-1217939651-r7" x="378.2" y="312.8" textLength="170.8" clip-path="url(#terminal-1217939651-line-12)">JWT_EXPIRES_IN</text><text class="terminal-1217939651-r8" x="719.8" y="312.8" textLength="36.6" clip-path="url(#terminal-1217939651-line-12)">&#160;=&#160;</text><text class="terminal-1217939651-r8" x="756.4" y="312.8" textLength="24.4" clip-path="url(#terminal-1217939651-line-12)">••</text><text class="terminal-1217939651-r1" x="1342" y="312.8" textLength="12.2" clip-path="url(#terminal-1217939651-line-12)">
</text><text class="terminal-1217939651-r4" x="353.8" y="337.2" textLength="12.2" clip-path="url(#terminal-1217939651-line-13)">│</text><text class="terminal-1217939651-r1" x="1342" y="337.2" textLength="12.2" clip-path="url(#terminal-1217939651-line-13)">
</text><text class="terminal-1217939651-r4" x="353.8" y="361.6" textLength="12.2" clip-path="url(#terminal-1217939651-line-14)">│</text><text class="terminal-1217939651-r5" x="378.2" y="361.6" textLength="768.6" clip-path="url(#terminal-1217939651-line-14)">#&#160;──&#160;App&#160;──────────────────────────────────────────────────────</text><text class="terminal-1217939651-r1" x="1342" y="361.6" textLength="12.2" clip-path="url(#terminal-1217939651-line-14)">
</text><text class="terminal-1217939651-r4" x="353.8" y="386" textLength="12.2" clip-path="url(#terminal-1217939651-line-15)">│</text><text class="terminal-1217939651-r7" x="378.2" y="386" textLength="85.4" clip-path="url(#terminal-1217939651-line-15)">APP_ENV</text><text class="terminal-1217939651-r8" x="719.8" y="386" textLength="36.6" clip-path="url(#terminal-1217939651-line-15)">&#160;=&#160;</text><text class="terminal-1217939651-r9" x="756.4" y="386" textLength="134.2" clip-path="url(#terminal-1217939651-line-15)">development</text><text class="terminal-1217939651-r1" x="1342" y="386" textLength="12.2" clip-path="url(#terminal-1217939651-line-15)">
</text><text class="terminal-1217939651-r4" x="353.8" y="410.4" textLength="12.2" clip-path="url(#terminal-1217939651-line-16)">│</text><text class="terminal-1217939651-r7" x="378.2" y="410.4" textLength="97.6" clip-path="url(#terminal-1217939651-line-16)">APP_PORT</text><text class="terminal-1217939651-r8" x="719.8" y="410.4" textLength="36.6" clip-path="url(#terminal-1217939651-line-16)">&#160;=&#160;</text><text class="terminal-1217939651-r9" x="756.4" y="410.4" textLength="48.8" clip-path="url(#terminal-1217939651-line-16)">3000</text><text class="terminal-1217939651-r1" x="1342" y="410.4" textLength="12.2" clip-path="url(#terminal-1217939651-line-16)">
</text><text class="terminal-1217939651-r4" x="353.8" y="434.8" textLength="12.2" clip-path="url(#terminal-1217939651-line-17)">│</text><text class="terminal-1217939651-r7" x="378.2" y="434.8" textLength="85.4" clip-path="url(#terminal-1217939651-line-17)">APP_URL</text><text class="terminal-1217939651-r8" x="719.8" y="434.8" textLength="36.6" clip-path="url(#terminal-1217939651-line-17)">&#160;=&#160;</text><text class="terminal-1217939651-r9" x="756.4" y="434.8" textLength="256.2" clip-path="url(#terminal-1217939651-line-17)">http://localhost:3000</text><text class="terminal-1217939651-r1" x="1342" y="434.8" textLength="12.2" clip-path="url(#terminal-1217939651-line-17)">
</text><text class="terminal-1217939651-r4" x="353.8" y="459.2" textLength="12.2" clip-path="url(#terminal-1217939651-line-18)">│</text><text class="terminal-1217939651-r7" x="378.2" y="459.2" textLength="61" clip-path="url(#terminal-1217939651-line-18)">DEBUG</text><text class="terminal-1217939651-r8" x="719.8" y="459.2" textLength="36.6" clip-path="url(#terminal-1217939651-line-18)">&#160;=&#160;</text><text class="terminal-1217939651-r9" x="756.4" y="459.2" textLength="48.8" clip-path="url(#terminal-1217939651-line-18)">true</text><text class="terminal-1217939651-r1" x="1342" y="459.2" textLength="12.2" clip-path="url(#terminal-1217939651-line-18)">
</text><text class="terminal-1217939651-r4" x="353.8" y="483.6" textLength="12.2" clip-path="url(#terminal-1217939651-line-19)">│</text><text class="terminal-1217939651-r7" x="378.2" y="483.6" textLength="109.8" clip-path="url(#terminal-1217939651-line-19)">LOG_LEVEL</text><text class="terminal-1217939651-r8" x="719.8" y="483.6" textLength="36.6" clip-path="url(#terminal-1217939651-line-19)">&#160;=&#160;</text><text class="terminal-1217939651-r9" x="756.4" y="483.6" textLength="61" clip-path="url(#terminal-1217939651-line-19)">debug</text><text class="terminal-1217939651-r1" x="1342" y="483.6" textLength="12.2" clip-path="url(#terminal-1217939651-line-19)">
</text><text class="terminal-1217939651-r4" x="353.8" y="508" textLength="12.2" clip-path="url(#terminal-1217939651-line-20)">│</text><text class="terminal-1217939651-r1" x="1342" y="508" textLength="12.2" clip-path="url(#terminal-1217939651-line-20)">
</text><text class="terminal-1217939651-r4" x="353.8" y="532.4" textLength="12.2" clip-path="url(#terminal-1217939651-line-21)">│</text><text class="terminal-1217939651-r5" x="378.2" y="532.4" textLength="841.8" clip-path="url(#terminal-1217939651-line-21)">#&#160;Note:&#160;SESSION_SECRET,&#160;STRIPE_*,&#160;SENDGRID_API_KEY,&#160;AWS_*&#160;are&#160;not&#160;set</text><text class="terminal-1217939651-r1" x="1342" y="532.4" textLength="12.2" clip-path="url(#terminal-1217939651-line-21)">
</text><text class="terminal-1217939651-r4" x="353.8" y="556.8" textLength="12.2" clip-path="url(#terminal-1217939651-line-22)">│</text><text class="terminal-1217939651-r5" x="378.2" y="556.8" textLength="805.2" clip-path="url(#terminal-1217939651-line-22)">#&#160;Run:&#160;lazyenv&#160;--validate&#160;.env&#160;.env.example&#160;&#160;to&#160;see&#160;what&#x27;s&#160;missing</text><text class="terminal-1217939651-r1" x="1342" y="556.8" textLength="12.2" clip-path="url(#terminal-1217939651-line-22)">
</text><text class="terminal-1217939651-r4" x="353.8" y="581.2" textLength="12.2" clip-path="url(#terminal-1217939651-line-23)">│</text><text class="terminal-1217939651-r1" x="1342" y="581.2" textLength="12.2" clip-path="url(#terminal-1217939651-line-23)">
</text><text class="terminal-1217939651-r4" x="353.8" y="605.6" textLength="12.2" clip-path="url(#terminal-1217939651-line-24)">│</text><text class="terminal-1217939651-r1" x="1342" y="605.6" textLength="12.2" clip-path="url(#terminal-1217939651-line-24)">
</text><text class="terminal-1217939651-r4" x="353.8" y="630" textLength="12.2" clip-path="url(#terminal-1217939651-line-25)">│</text><text class="terminal-1217939651-r1" x="1342" y="630" textLength="12.2" clip-path="url(#terminal-1217939651-line-25)">
</text><text class="terminal-1217939651-r4" x="353.8" y="654.4" textLength="12.2" clip-path="url(#terminal-1217939651-line-26)">│</text><text class="terminal-1217939651-r1" x="1342" y="654.4" textLength="12.2" clip-path="url(#terminal-1217939651-line-26)">
</text><text class="terminal-1217939651-r4" x="353.8" y="678.8" textLength="12.2" clip-path="url(#terminal-1217939651-line-27)">│</text><text class="terminal-1217939651-r1" x="1342" y="678.8" textLength="12.2" clip-path="url(#terminal-1217939651-line-27)">
</text><text class="terminal-1217939651-r10" x="24.4" y="703.2" textLength="85.4" clip-path="url(#terminal-1217939651-line-28)">lazyenv</text><text class="terminal-1217939651-r10" x="134.2" y="703.2" textLength="48.8" clip-path="url(#terminal-1217939651-line-28)">.env</text><text class="terminal-1217939651-r10" x="207.4" y="703.2" textLength="12.2" clip-path="url(#terminal-1217939651-line-28)">│</text><text class="terminal-1217939651-r10" x="244" y="703.2" textLength="85.4" clip-path="url(#terminal-1217939651-line-28)">2&#160;files</text><text class="terminal-1217939651-r10" x="353.8" y="703.2" textLength="12.2" clip-path="url(#terminal-1217939651-line-28)">│</text><text class="terminal-1217939651-r2" x="402.6" y="703.2" textLength="85.4" clip-path="url(#terminal-1217939651-line-28)">MASK&#160;ON</text><text class="terminal-1217939651-r1" x="1342" y="703.2" textLength="12.2" clip-path="url(#terminal-1217939651-line-28)">
</text><text class="terminal-1217939651-r11" x="0" y="727.6" textLength="36.6" clip-path="url(#terminal-1217939651-line-29)">&#160;q&#160;</text><text class="terminal-1217939651-r12" x="36.6" y="727.6" textLength="61" clip-path="url(#terminal-1217939651-line-29)">Quit&#160;</text><text class="terminal-1217939651-r11" x="97.6" y="727.6" textLength="36.6" clip-path="url(#terminal-1217939651-line-29)">&#160;?&#160;</text><text class="terminal-1217939651-r12" x="134.2" y="727.6" textLength="61" clip-path="url(#terminal-1217939651-line-29)">Help&#160;</text><text class="terminal-1217939651-r11" x="195.2" y="727.6" textLength="36.6" clip-path="url(#terminal-1217939651-line-29)">&#160;r&#160;</text><text class="terminal-1217939651-r12" x="231.8" y="727.6" textLength="85.4" clip-path="url(#terminal-1217939651-line-29)">Reload&#160;</text><text class="terminal-1217939651-r11" x="317.2" y="727.6" textLength="36.6" clip-path="url(#terminal-1217939651-line-29)">&#160;d&#160;</text><text class="terminal-1217939651-r12" x="353.8" y="727.6" textLength="61" clip-path="url(#terminal-1217939651-line-29)">Diff&#160;</text><text class="terminal-1217939651-r11" x="414.8" y="727.6" textLength="36.6" clip-path="url(#terminal-1217939651-line-29)">&#160;m&#160;</text><text class="terminal-1217939651-r12" x="451.4" y="727.6" textLength="158.6" clip-path="url(#terminal-1217939651-line-29)">Mask&#160;secrets&#160;</text><text class="terminal-1217939651-r11" x="610" y="727.6" textLength="36.6" clip-path="url(#terminal-1217939651-line-29)">&#160;c&#160;</text><text class="terminal-1217939651-r12" x="646.6" y="727.6" textLength="61" clip-path="url(#terminal-1217939651-line-29)">Copy&#160;</text><text class="terminal-1217939651-r11" x="707.6" y="727.6" textLength="36.6" clip-path="url(#terminal-1217939651-line-29)">&#160;e&#160;</text><text class="terminal-1217939651-r12" x="744.2" y="727.6" textLength="61" clip-path="url(#terminal-1217939651-line-29)">Edit&#160;</text><text class="terminal-1217939651-r11" x="805.2" y="727.6" textLength="36.6" clip-path="url(#terminal-1217939651-line-29)">&#160;/&#160;</text><text class="terminal-1217939651-r12" x="841.8" y="727.6" textLength="85.4" clip-path="url(#terminal-1217939651-line-29)">Filter&#160;</text><text class="terminal-1217939651-r13" x="1195.6" y="727.6" textLength="12.2" clip-path="url(#terminal-1217939651-line-29)">▏</text><text class="terminal-1217939651-r11" x="1207.8" y="727.6" textLength="24.4" clip-path="url(#terminal-1217939651-line-29)">^p</text><text class="terminal-1217939651-r12" x="1232.2" y="727.6" textLength="97.6" clip-path="url(#terminal-1217939651-line-29)">&#160;palette</text>
    </g>
    </g>
</svg>
